HIERARCHY
ROOT root
{
	OFFSET	0	13.1	24.9
	CHANNELS 6  Xposition Yposition Zposition Xrotation Yrotation Zrotation
	JOINT spine_1
	{
		OFFSET	0	9.99999	0
		CHANNELS 3  Xrotation Yrotation Zrotation
		JOINT spine_2
		{
			OFFSET	0	112	-10
			CHANNELS 3  Xrotation Yrotation Zrotation
			JOINT spine_3
			{
				OFFSET	0	206.5	19.3
				CHANNELS 3  Xrotation Yrotation Zrotation
				JOINT spine_4
				{
					OFFSET	0	110.4	14.6
					CHANNELS 3  Xrotation Yrotation Zrotation
					JOINT neck_1
					{
						OFFSET	0	71.8	-50.3
						CHANNELS 3  Xrotation Yrotation Zrotation
						JOINT neck_2
						{
							OFFSET	0	86.2	-25.8
							CHANNELS 3  Xrotation Yrotation Zrotation
							JOINT head_ee
							{
								OFFSET	0	179.8	-8.7
								CHANNELS 3  Xrotation Yrotation Zrotation
								End Site
								{
									OFFSET	1	0	0
								}
							}
						}
					}
					JOINT left_clavicle
					{
						OFFSET	-43.2	22.4	-70.8
						CHANNELS 3  Xrotation Yrotation Zrotation
						JOINT left_shoulder
						{
							OFFSET	-93.9	-5.79999	48.7
							CHANNELS 3  Xrotation Yrotation Zrotation
							JOINT left_elbow
							{
								OFFSET	-291.4	-30.8	15.2
								CHANNELS 3  Xrotation Yrotation Zrotation
								JOINT left_lowarm_twist
								{
									OFFSET	-110.7	-3.89999	13.6
									CHANNELS 3  Xrotation Yrotation Zrotation
									JOINT left_hand
									{
										OFFSET	-110.7	-3.89999	13.6
										CHANNELS 3  Xrotation Yrotation Zrotation
										JOINT left_ee
										{
											OFFSET	-80.8	-5.10001	12.1
											CHANNELS 3  Xrotation Yrotation Zrotation
											End Site
											{
												OFFSET	1	0	0
											}
										}
									}
								}
							}
						}
					}
					JOINT right_clavicle
					{
						OFFSET	43.2	22.4	-70.8
						CHANNELS 3  Xrotation Yrotation Zrotation
						JOINT right_shoulder
						{
							OFFSET	93.9	-5.79999	48.7
							CHANNELS 3  Xrotation Yrotation Zrotation
							JOINT right_elbow
							{
								OFFSET	291.4	-30.8	15.2
								CHANNELS 3  Xrotation Yrotation Zrotation
								JOINT right_lowarm_twist
								{
									OFFSET	110.7	-3.89999	13.6
									CHANNELS 3  Xrotation Yrotation Zrotation
									JOINT right_hand
									{
										OFFSET	110.7	-3.89999	13.6
										CHANNELS 3  Xrotation Yrotation Zrotation
										JOINT right_ee
										{
											OFFSET	80.8	-5.10001	12.1
											CHANNELS 3  Xrotation Yrotation Zrotation
											End Site
											{
												OFFSET	1	0	0
											}
										}
									}
								}
							}
						}
					}
				}
			}
		}
	}
	JOINT left_hip
	{
		OFFSET	-82.8	-127.5	0.300001
		CHANNELS 3  Xrotation Yrotation Zrotation
		JOINT left_knee
		{
			OFFSET	-28.2	-396.7	2.2
			CHANNELS 3  Xrotation Yrotation Zrotation
			JOINT left_ankle
			{
				OFFSET	-11.7	-411.3	35.4
				CHANNELS 3  Xrotation Yrotation Zrotation
				JOINT left_toes
				{
					OFFSET	0	-60	-88.6
					CHANNELS 3  Xrotation Yrotation Zrotation
					JOINT left_foot_ee
					{
						OFFSET	-22.5	-16.5	-42.2
						CHANNELS 3  Xrotation Yrotation Zrotation
						End Site
						{
							OFFSET	1	0	0
						}
					}
				}
			}
		}
	}
	JOINT right_hip
	{
		OFFSET	82.8	-127.5	0.300001
		CHANNELS 3  Xrotation Yrotation Zrotation
		JOINT right_knee
		{
			OFFSET	28.2	-396.7	2.2
			CHANNELS 3  Xrotation Yrotation Zrotation
			JOINT right_ankle
			{
				OFFSET	11.7	-411.3	35.4
				CHANNELS 3  Xrotation Yrotation Zrotation
				JOINT right_toes
				{
					OFFSET	0	-60	-88.6
					CHANNELS 3  Xrotation Yrotation Zrotation
					JOINT right_foot_ee
					{
						OFFSET	22.5	-16.5	-42.2
						CHANNELS 3  Xrotation Yrotation Zrotation
						End Site
						{
							OFFSET	1	0	0
						}
					}
				}
			}
		}
	}
}
MOTION
Frames: 15
Frame Time: 0.02
1907.28 723.905 -480.612 155.808 -73.5005 157.584 -2.1376 -0.231588 -0.66816 -2.13737 -0.188603 -0.681541 -2.1348 -0.0148263 -0.706999 -2.13547 -0.126295 -0.695786 -4.84425 4.84833 2.91394 -4.81693 6.70966 3.79906 -0.0 0.0 -0.0 2.1643 10.913 4.97583 -14.9314 -13.2384 74.3645 0.225261 -6.36732 0.0125296 -53.8899 -4.53414 4.87072 2.06355 11.6643 18.2391 -0.0 0.0 -0.0 3.19411 9.41634 -5.47835 14.3167 27.9752 -70.4052 2.98984 55.9621 -1.58872 19.9471 -0.266358 2.52129 -0.330084 -2.37486 1.19115 0.0 0.0 0.0 6.30778 16.3936 -7.8305 -19.5252 0.300986 2.9667 36.0585 23.1329 -4.72155 -16.514 0.0 0.0 -0.0 0.0 -0.0 7.54503 14.6263 -8.57737 -9.47436 -0.272636 -1.4268 20.8852 8.67535 2.94972 -21.5416 0.0 0.0 0.0 0.0 0.0 
1912.92 725.897 -481.871 155.756 -72.963 157.664 -2.28186 -0.0604256 -0.649572 -2.28163 -0.0189701 -0.652101 -2.28116 0.143956 -0.636296 -2.28173 0.0416605 -0.651045 -4.88445 5.15098 2.65476 -4.85893 7.46533 3.58832 -0.0 0.0 -0.0 2.11143 10.8281 4.87994 -14.9728 -13.2622 74.165 0.2132 -6.02898 0.0112274 -53.9408 -4.54028 4.87297 2.14782 11.8571 18.8715 -0.0 0.0 -0.0 3.28175 9.61837 -5.64349 15.3808 27.5024 -70.0491 2.99667 56.0227 -1.59438 19.8495 -0.267205 2.50886 -0.31799 -2.21303 1.17984 0.0 0.0 0.0 6.86007 15.9597 -7.97465 -18.5468 0.310101 2.81687 35.6395 23.9998 -4.70133 -16.6004 0.0 0.0 -0.0 0.0 -0.0 7.59499 15.0826 -9.36924 -9.94089 -0.279928 -1.49802 20.4105 7.72547 2.87668 -21.3109 0.0 0.0 0.0 0.0 0.0 
1918.43 726.198 -481.563 155.497 -73.7069 157.723 -2.26133 -0.0472598 -0.689306 -2.26106 -0.0033028 -0.690916 -2.26076 0.168556 -0.670049 -2.26138 0.0606211 -0.688259 -5.43603 4.86999 2.45312 -5.416 7.14696 3.36009 -0.0 0.0 -0.0 2.12617 10.9877 4.91581 -15.2299 -13.2409 73.8644 0.215821 -6.10255 0.0115044 -54.1213 -4.56203 4.8809 2.21764 11.8962 19.3563 -0.0 0.0 -0.0 3.136 9.4987 -5.35159 16.2723 27.0805 -70.4606 3.00271 56.0761 -1.59939 19.8525 -0.267178 2.50925 -0.312911 -2.15018 1.17289 0.0 0.0 0.0 6.78512 15.3855 -7.75844 -17.6396 0.316268 2.6778 35.0092 24.1278 -4.63874 -16.6861 0.0 0.0 -0.0 0.0 -0.0 7.72924 15.3773 -9.95375 -9.93987 -0.279913 -1.49786 20.3879 7.67689 2.87318 -20.9607 0.0 0.0 0.0 0.0 0.0 
1925.52 728.286 -484.123 155.777 -73.9574 158.24 -2.27965 -0.0290958 -0.689249 -2.27939 0.0148208 -0.689704 -2.27931 0.186025 -0.66431 -2.27991 0.0787779 -0.68535 -6.04877 4.71563 2.4622 -6.03148 6.90558 3.36924 -0.0 0.0 -0.0 2.43451 12.0189 5.502 -15.3518 -13.2189 73.5956 0.203415 -5.75419 0.010223 -54.1782 -4.56889 4.88339 2.30781 12.0998 20.0349 -0.0 0.0 -0.0 3.11133 9.27862 -5.31842 15.5837 26.9277 -70.0543 3.06956 56.6573 -1.65505 20.0204 -0.265708 2.53064 -0.254964 -2.06169 0.825902 0.0 0.0 0.0 6.8275 14.8496 -7.43432 -17.3681 0.317684 2.63618 31.9073 24.298 -4.30658 -17.1558 0.0 0.0 -0.0 0.0 -0.0 7.66696 15.6907 -10.0477 -10.0504 -0.281556 -1.51474 19.5048 7.64599 2.76052 -20.7136 0.0 0.0 0.0 0.0 0.0 
1932.05 728.864 -484.519 155.046 -74.1805 157.574 -2.25467 -0.0991623 -0.774928 -2.25434 -0.0496522 -0.779667 -2.2533 0.145622 -0.767555 -2.25412 0.0225776 -0.78092 -5.62019 4.43364 3.06201 -5.5942 5.90415 3.90529 -0.0 0.0 -0.0 2.21411 11.3641 5.08992 -15.0062 -13.2143 74.2024 0.211397 -5.97836 0.0110389 -54.5906 -4.61871 4.90119 2.46095 12.3459 21.1588 -0.0 0.0 -0.0 3.09553 9.26023 -5.28728 15.7342 26.5835 -70.1712 3.03339 56.345 -1.62489 19.5146 -0.269949 2.46618 -0.258592 -1.67655 1.01356 0.0 0.0 0.0 6.38371 14.113 -7.5863 -17.3952 0.317552 2.64033 30.6968 22.9081 -4.13862 -17.0127 0.0 0.0 -0.0 0.0 -0.0 7.60399 15.8562 -10.4412 -10.9541 -0.293768 -1.65288 20.2162 9.01452 2.86985 -20.123 0.0 0.0 0.0 0.0 0.0 
1938.18 728.456 -487.038 154.994 -74.1813 157.674 -2.20421 -0.0172636 -0.80058 -2.20385 0.0337127 -0.800056 -2.20399 0.230787 -0.76679 -2.2048 0.106794 -0.793613 -6.02145 3.9936 3.96336 -5.98032 4.46007 4.74531 -0.0 0.0 -0.0 2.37305 11.6539 5.37688 -14.9827 -13.0213 74.0784 0.263075 -7.42508 0.0170702 -54.2331 -4.57552 4.88578 2.64407 12.958 22.6115 -0.0 0.0 -0.0 2.81616 9.04062 -4.72911 14.2949 26.1548 -70.0087 3.16697 57.4732 -1.7368 19.2487 -0.271951 2.43226 -0.126755 -0.60207 0.591504 0.0 0.0 0.0 6.38466 14.203 -7.65162 -18.3867 0.31135 2.79232 32.0642 23.4953 -4.30455 -16.5295 0.0 0.0 -0.0 0.0 -0.0 7.2093 16.0831 -10.302 -11.4285 -0.299305 -1.72545 22.2855 8.73542 3.12536 -19.2742 0.0 0.0 0.0 0.0 0.0 
1946.04 726.973 -489.584 156.288 -73.9625 159.232 -2.24747 0.0262059 -0.887367 -2.24704 0.082616 -0.883901 -2.24794 0.29958 -0.835682 -2.24888 0.163845 -0.872504 -6.77147 4.45666 4.2211 -6.72604 5.20462 5.11097 -0.0 0.0 -0.0 2.38358 11.5652 5.38937 -14.5895 -12.963 73.7475 0.246082 -6.95034 0.0149441 -53.9737 -4.54423 4.87442 2.80378 12.6004 23.6059 -0.0 0.0 -0.0 2.56028 9.5774 -4.15501 14.0822 26.1208 -70.1861 3.09479 56.8721 -1.67615 19.4026 -0.270812 2.45189 -0.112589 -1.58419 0.0822192 0.0 0.0 0.0 6.41646 13.9522 -7.67454 -18.3153 0.311884 2.78139 31.0126 23.3175 -4.18323 -16.8864 0.0 0.0 -0.0 0.0 -0.0 7.15475 16.2477 -10.2905 -11.5065 -0.300158 -1.73739 23.032 9.65495 3.23191 -19.322 0.0 0.0 0.0 0.0 0.0 
1952.93 727.238 -489.654 155.929 -74.7232 158.779 -2.11477 -0.174979 -0.876554 -2.11435 -0.11885 -0.885911 -2.11201 0.102798 -0.887916 -2.11311 -0.038716 -0.893008 -6.71301 4.24353 4.31772 -6.66498 4.73249 5.16416 -0.0 0.0 -0.0 2.51749 11.7039 5.62377 -14.4896 -12.895 73.3477 0.256623 -7.24494 0.0162464 -53.8605 -4.5306 4.86942 2.91839 12.9467 24.5145 -0.0 0.0 -0.0 1.61671 9.1663 -2.24643 13.8561 26.3122 -71.8965 3.15056 57.3383 -1.72298 19.5887 -0.269364 2.47561 0.0258246 -1.4314 -0.773873 0.0 0.0 0.0 6.5003 14.3174 -7.48119 -18.3118 0.31191 2.78086 32.1969 22.1468 -4.2886 -16.9301 0.0 0.0 -0.0 0.0 -0.0 7.00154 16.3441 -10.3323 -11.8166 -0.303388 -1.78486 23.7427 10.0487 3.3254 -19.2093 0.0 0.0 0.0 0.0 0.0 
1967.6 730.871 -491.501 156.328 -75.23 159.436 -2.0471 -0.149361 -1.00602 -2.04654 -0.0850453 -1.01349 -2.04443 0.165781 -1.00345 -2.04584 0.00523293 -1.01704 -6.28336 3.73659 4.58962 -6.22776 3.54915 5.33155 -0.0 0.0 -0.0 2.64316 12.2839 5.86684 -14.3357 -12.9441 73.0731 0.265894 -7.50376 0.0174364 -53.732 -4.51513 4.86371 3.13646 12.5336 25.9278 -0.0 0.0 -0.0 1.62148 8.73992 -2.29806 11.3127 24.9919 -71.0391 3.11894 57.0754 -1.6964 19.661 -0.26878 2.48484 0.35497 0.375665 -2.21486 0.0 0.0 0.0 5.14298 13.8877 -6.92528 -16.799 0.320014 2.54889 32.5003 21.4573 -4.30696 -17.1217 0.0 0.0 -0.0 0.0 -0.0 7.07491 16.4249 -10.6148 -13.3745 -0.315727 -2.02357 24.6636 8.34803 3.40776 -18.9395 0.0 0.0 0.0 0.0 0.0 
1977.36 732.892 -496.933 155.286 -76.3431 158.816 -1.93736 -0.3083 -1.329 -1.9364 -0.223115 -1.34592 -1.93003 0.110608 -1.3598 -1.9326 -0.105514 -1.3602 -4.75081 2.35199 4.67189 -4.69106 0.785753 5.17022 -0.0 0.0 -0.0 3.07917 14.2624 6.67763 -13.5411 -13.3649 72.1032 0.323371 -9.10101 0.0257368 -55.1229 -4.68321 4.92365 3.15259 15.1321 26.8112 -0.0 0.0 -0.0 1.5865 8.85968 -2.21437 9.09729 24.2195 -70.6791 2.82761 54.4659 -1.45547 18.6305 -0.275996 2.3534 0.590254 2.50034 -2.90793 0.0 0.0 0.0 3.86165 13.928 -6.43817 -14.8372 0.3214 2.24791 32.9642 19.8635 -4.32519 -17.6664 0.0 0.0 -0.0 0.0 -0.0 7.16215 16.7489 -10.9282 -14.4068 -0.320325 -2.18188 23.0526 7.40264 3.19981 -18.7503 0.0 0.0 0.0 0.0 0.0 
1979.77 730.027 -499.655 157.115 -76.4114 160.921 -1.85272 -0.267579 -1.48954 -1.8515 -0.172264 -1.50354 -1.84567 0.196051 -1.50063 -1.84881 -0.0433779 -1.51276 -5.25574 2.63283 5.24621 -5.18027 0.917685 5.79636 -0.0 0.0 -0.0 3.4226 15.5214 7.27371 -12.0423 -14.2666 71.4325 0.382982 -10.7426 0.0360089 -55.8252 -4.7686 4.95236 3.09192 16.9893 26.8995 -0.0 0.0 -0.0 1.25352 7.91279 -1.62623 9.37577 22.2702 -71.5027 2.75638 53.7723 -1.39776 18.0131 -0.279186 2.27461 0.596779 1.577 -3.3361 0.0 0.0 0.0 3.98968 14.0581 -6.73319 -13.1188 0.314147 1.98437 33.8659 20.0723 -4.42443 -17.9122 0.0 0.0 -0.0 0.0 -0.0 7.39891 16.2064 -10.8727 -13.9844 -0.318788 -2.11709 24.1969 8.10485 3.34824 -18.214 0.0 0.0 0.0 0.0 0.0 
1987.45 731.339 -501.783 156.776 -76.4534 160.913 -1.83561 -0.395928 -1.6355 -1.83417 -0.29107 -1.65737 -1.82407 0.117254 -1.67864 -1.82797 -0.149289 -1.67609 -3.97094 1.79868 4.50402 -3.9141 -0.166949 4.92291 -0.0 0.0 -0.0 3.80751 16.3277 7.90397 -10.8495 -13.4386 71.063 0.422074 -11.8096 0.0436532 -55.9348 -4.78195 4.95674 3.14693 17.9829 27.5462 -0.0 0.0 -0.0 0.933937 8.29468 -0.931973 7.58417 21.7996 -71.466 2.50383 51.1147 -1.19749 17.968 -0.279386 2.26886 0.757237 1.32674 -4.51769 0.0 0.0 0.0 2.67971 14.5182 -6.73984 -11.4355 0.299382 1.72652 33.6152 19.3366 -4.38417 -18.3157 0.0 0.0 -0.0 0.0 -0.0 7.66735 17.0251 -11.2036 -15.0888 -0.321798 -2.28652 23.6768 7.9948 3.28405 -18.4846 0.0 0.0 0.0 0.0 0.0 
1990.15 729.022 -504.191 157.644 -76.7257 161.951 -1.75261 -0.380425 -1.7641 -1.75092 -0.267418 -1.78472 -1.74072 0.168329 -1.79677 -1.74521 -0.117503 -1.80081 -3.58356 1.70638 4.66872 -3.52182 -0.494273 5.08851 -0.0 0.0 -0.0 4.09778 16.6789 8.36696 -9.29797 -13.7061 70.5259 0.46072 -12.8565 0.0519082 -56.2344 -4.81851 4.9686 3.11097 19.6657 27.72 -0.0 0.0 -0.0 0.660257 8.15237 -0.386211 6.7636 20.7161 -71.6367 2.33768 49.1808 -1.06992 17.6707 -0.280589 2.23091 0.789289 1.25959 -4.76086 0.0 0.0 0.0 2.14656 15.0243 -6.64368 -10.1122 0.282461 1.52419 34.0453 18.985 -4.42262 -18.4998 0.0 0.0 -0.0 0.0 -0.0 7.94894 17.1821 -11.3254 -15.2881 -0.321993 -2.31708 24.5213 8.04213 3.38602 -18.0179 0.0 0.0 0.0 0.0 0.0 
1997.54 727.763 -505.58 160.193 -76.7576 164.746 -1.71734 -0.296503 -1.86328 -1.71543 -0.177358 -1.87837 -1.70769 0.277196 -1.86625 -1.71255 -0.0209681 -1.8866 -4.06527 1.83213 4.87304 -3.9983 -0.381037 5.30605 -0.0 0.0 -0.0 4.36158 16.8769 8.78378 -7.94598 -13.9366 69.9927 0.492748 -13.7174 0.0592693 -56.4425 -4.84393 4.97672 3.10377 20.9766 27.9829 -0.0 0.0 -0.0 0.516835 9.5118 0.0592646 5.31421 20.1205 -72.1332 2.05776 45.5437 -0.863889 17.4202 -0.281451 2.19893 0.85674 0.813956 -5.39779 0.0 0.0 0.0 1.77339 15.3808 -6.64306 -8.37413 0.253143 1.2591 34.9365 18.5909 -4.50715 -18.6198 0.0 0.0 -0.0 0.0 -0.0 8.10588 17.052 -11.3436 -15.4101 -0.32206 -2.33581 26.0782 7.83036 3.56578 -17.4655 0.0 0.0 0.0 0.0 0.0 
2002.73 728.469 -507.646 160.451 -77.7711 165.148 -1.66695 -0.354098 -2.084 -1.66456 -0.2208 -2.1023 -1.65405 0.286634 -2.09434 -1.66017 -0.0476489 -2.11332 -3.94358 1.51021 4.26935 -3.8918 -0.5159 4.63649 -0.0 0.0 -0.0 4.82872 17.024 9.51977 -5.90737 -14.3671 69.7102 0.523674 -14.5429 0.0668193 -56.4866 -4.84933 4.97844 3.08361 21.7577 28.0241 -0.0 0.0 -0.0 0.389807 8.76639 0.237664 3.43134 19.4996 -71.9616 1.98224 44.473 -0.810477 17.2821 -0.281866 2.18129 0.817243 0.931423 -5.08399 0.0 0.0 0.0 1.83258 15.5922 -6.71268 -7.63018 0.238138 1.14593 35.4963 17.8074 -4.54994 -18.8265 0.0 0.0 -0.0 0.0 -0.0 8.05783 15.7981 -11.0988 -15.6217 -0.322082 -2.36827 26.8158 7.12306 3.63975 -17.4841 0.0 0.0 0.0 0.0 0.0 
